<?xml version="1.0" encoding="UTF-8"?><svg xmlns="http://www.w3.org/2000/svg" xmlns:xlink="http://www.w3.org/1999/xlink" viewBox="0 0 372 373"><defs><style>.e{fill:#a2cff0;}.f{fill:#ddedf9;}.g{fill:#b6d9f3;}.h{fill:#f0f7fc;}.i{fill:#cae3f6;}.j{fill:#8fc5ec;}.k{fill:none;stroke:url(#c);stroke-linecap:round;stroke-linejoin:round;stroke-width:11px;}</style><linearGradient id="c" x1="0" y1="162.01" x2="372" y2="162.01" gradientTransform="matrix(1, 0, 0, 1, 0, 0)" gradientUnits="userSpaceOnUse"><stop offset="0" stop-color="#a0dde7"/><stop offset=".07" stop-color="#96d9e2"/><stop offset=".19" stop-color="#7dd0d7"/><stop offset=".34" stop-color="#53c1c5"/><stop offset=".5" stop-color="#20afaf"/><stop offset=".55" stop-color="#20a2aa"/><stop offset=".67" stop-color="#20879f"/><stop offset=".74" stop-color="#207d9b"/><stop offset=".76" stop-color="#207996"/><stop offset=".84" stop-color="#206581"/><stop offset=".92" stop-color="#205975"/><stop offset=".99" stop-color="#205671"/></linearGradient></defs><g id="a"><g><polygon class="e" points="288.07 82 347.29 150.64 245.5 150.64 288.07 82"/><polygon class="j" points="347.29 150.64 195.53 320.47 245.5 150.64 347.29 150.64"/><polygon class="g" points="288.07 82 245.5 150.64 195.53 82 288.07 82"/><polygon class="i" points="195.53 82 245.5 150.64 145.56 150.64 195.53 82"/><polygon class="g" points="245.5 150.64 195.53 320.47 145.56 150.64 245.5 150.64"/><polygon class="f" points="195.53 82 145.56 150.64 102.99 82 195.53 82"/><polygon class="f" points="145.56 150.64 195.53 320.47 47.47 150.64 145.56 150.64"/><polygon class="h" points="102.99 82 145.56 150.64 47.47 150.64 102.99 82"/></g></g><g id="b"><polyline class="k" points="5.5 217.5 53.19 217.5 63.36 248.17 81.5 174.03 102.5 289.01 139.31 35.01 184.25 217 263.88 217.4 283.5 152 305.5 249 319.5 196.05 333.99 217.5 366.5 217.5"/></g><g id="d"/></svg>